<svg width="15" height="14" viewBox="0 0 15 14" fill="none" xmlns="http://www.w3.org/2000/svg">
<path d="M8.38 10.8182C8.69125 8.30645 11.875 6.23827 11.875 0H3.125C3.125 6.23827 6.31563 8.30645 6.6275 10.8182H8.38ZM6.12125 3.51782L7.03375 3.38927L7.43563 2.54545L7.8375 3.38927L8.75 3.51782L8.08562 4.16755L8.24813 5.09091L7.43563 4.64864L6.62313 5.09091L6.78563 4.16755L6.12125 3.51782ZM3.74438 6.14473C3.92313 6.55073 4.11 6.92809 4.29563 7.27936C1.755 6.42155 0.2325 3.885 0 1.27273H2.54813C2.57063 1.57945 2.59812 1.88045 2.635 2.16682H0.954375C1.22125 3.44018 1.9225 5.17618 3.74438 6.14473ZM10 13.1212V14H5V13.1212C6.21313 13.1212 6.48063 12.2093 6.60687 11.4545H8.39812C8.51875 12.2099 8.75125 13.1212 10 13.1212ZM15 1.27273C14.7675 3.885 13.245 6.42155 10.7044 7.27873C10.89 6.92745 11.0769 6.55009 11.2556 6.14409C13.0775 5.17618 13.7787 3.43955 14.0456 2.16618H12.3656C12.4025 1.87982 12.43 1.57945 12.4525 1.27209H15V1.27273Z" fill="#C6D2DB"/>
</svg>
