<svg width="12" height="14" viewBox="0 0 12 14" fill="none" xmlns="http://www.w3.org/2000/svg">
<path d="M1.56232 12.0803C2.0489 12.0441 2.0027 11.6066 1.54372 11.5243C0.782961 11.3878 0.448178 10.9912 0.448178 10.6242C0.448178 10.3157 0.685766 10.0281 1.10694 9.93475C1.60912 9.8245 1.50532 9.49258 1.08835 9.46108C0.40858 9.40858 0.0755962 9.01542 0.0755962 8.63858C0.0755963 8.30958 0.329984 7.99225 0.831558 7.92633C1.34573 7.85983 1.17834 7.49817 0.81296 7.3885C0.499775 7.29517 8.23125e-08 7.09742 8.93452e-08 6.50767C9.40197e-08 6.11567 0.299985 5.5965 1.36253 5.6385C2.0993 5.66825 3.56202 5.52358 4.34978 5.12225C3.80621 2.98958 3.937 4.69483e-08 5.36253 6.39476e-08C6.31888 7.53519e-08 6.50008 1.05408 6.78746 2.02358C7.81881 5.5055 9.88091 6.14308 12 6.45925L12 12.25C7.9874 12.25 6.90026 14 3.89741 14C1.9787 14 0.986351 12.9885 0.986351 12.4448C0.986351 12.25 1.14954 12.1112 1.56232 12.0803Z" fill="#C6D2DB"/>
</svg>
