<svg width="12" height="14" viewBox="0 0 12 14" fill="none" xmlns="http://www.w3.org/2000/svg">
<path d="M10.4377 1.91975C9.9511 1.95592 9.9973 2.39342 10.4563 2.47567C11.217 2.61217 11.5518 3.00883 11.5518 3.37575C11.5518 3.68433 11.3142 3.97192 10.8931 4.06525C10.3909 4.1755 10.4947 4.50742 10.9117 4.53892C11.5914 4.59142 11.9244 4.98458 11.9244 5.36142C11.9244 5.69042 11.67 6.00775 11.1684 6.07367C10.6543 6.14017 10.8217 6.50183 11.187 6.6115C11.5002 6.70483 12 6.90258 12 7.49233C12 7.88433 11.7 8.4035 10.6375 8.3615C9.9007 8.33175 8.43798 8.47642 7.65022 8.87775C8.19379 11.0104 8.063 14 6.63747 14C5.68112 14 5.49992 12.9459 5.21254 11.9764C4.18119 8.4945 2.11909 7.85692 6.24058e-07 7.54075L8.77179e-07 1.75C4.0126 1.75 5.09974 -3.0162e-07 8.10259 -1.70361e-07C10.0213 -8.64918e-08 11.0136 1.0115 11.0136 1.55517C11.0136 1.75 10.8505 1.88883 10.4377 1.91975Z" fill="#C6D2DB"/>
</svg>
